PathFileType	4	(X/Y/Z)	D:\TRACE\spotREDO_2-26-24\spot_justArm_Motion_2_1-v60.trc
DataRate	CameraRate	NumFrames	NumMarkers	Units	OrigDataRate	OrigDataStartFrame	OrigNumFrames
100.00	100.00	      21	9	mm	100.00	6126	      7000
Frame#	Time	front left toe			Front right toe			aft left toe			aft right toe			Arm			FL body			FR body			AL Body			AR Body			
		X1	Y1	Z1	X2	Y2	Z2	X3	Y3	Z3	X4	Y4	Z4	X5	Y5	Z5	X6	Y6	Z6	X7	Y7	Z7	X8	Y8	Z8	X9	Y9	Z9	

6126	61.250	-253.55092	8.42640	-200.73514	172.91171	9.49154	-127.66330	-360.83008	49.14050	419.77820	67.09071	48.43785	431.01965	-98.39133	755.17444	-740.53253	-75.93381	551.90845	-237.07826	77.20879	559.63745	-211.87112	-229.44249	561.85999	633.13684	-82.15575	564.74506	659.78168	
6127	61.260	-253.96149	7.96254	-200.89211	172.60503	9.39621	-127.91367	-361.08615	49.67321	419.76569	66.83430	49.01732	430.61859	-99.71429	755.17847	-740.69073	-78.20844	551.70038	-237.64291	75.52285	559.27643	-212.68050	-229.34300	562.74011	633.07104	-82.68019	565.43317	659.13696	
6128	61.270	-254.13464	7.62383	-200.89342	172.47340	8.91482	-128.41685	-361.13159	50.40401	419.40533	66.85857	49.32871	430.24063	-100.03680	754.72882	-740.79095	-79.34609	551.10181	-237.86876	73.70698	558.75275	-213.32516	-229.27562	563.72705	632.90198	-82.50055	566.32947	658.71509	
6129	61.280	-254.21129	7.19227	-200.97835	172.70888	8.98046	-128.78978	-361.20602	50.89067	419.21027	66.97639	50.21076	429.82651	-99.84842	754.36292	-741.38977	-81.22774	550.60364	-238.29640	72.50400	558.22540	-213.89549	-229.60989	564.49969	632.74963	-82.58606	567.20697	658.45258	
6130	61.290	-254.35698	6.64540	-201.29250	172.34921	9.09082	-129.11629	-360.83627	51.28666	418.74643	66.99902	50.92338	429.77899	-98.95750	753.96497	-742.42224	-82.54618	549.91132	-238.54726	70.21410	557.82922	-214.77063	-229.63483	565.59131	632.73450	-82.84948	568.22382	658.11530	
6131	61.300	-254.44974	6.28560	-201.44446	172.37700	8.42962	-129.65291	-361.14240	51.93176	419.00107	66.64048	51.22273	429.27579	-97.96962	753.52002	-743.81750	-83.68607	549.17413	-238.68471	68.98762	557.20337	-215.03317	-230.14566	566.70502	632.61469	-83.06839	569.44244	658.00238	
6132	61.310	-253.99179	5.68818	-201.33990	172.71091	8.31999	-129.70293	-360.94403	52.52023	418.86853	67.14651	51.79626	429.02176	-96.46984	753.06281	-745.10760	-84.59664	548.31146	-239.06342	67.79826	556.40063	-215.35277	-231.10774	568.00348	632.47620	-84.13612	570.46350	657.43994	
6133	61.320	-253.67924	5.53650	-201.42183	173.18076	8.31146	-129.50989	-360.84229	53.03743	418.53357	67.19098	52.82961	428.67123	-94.36600	752.26239	-745.79327	-86.01677	547.91901	-239.47542	66.90031	555.73608	-215.64960	-231.87576	569.02319	631.96246	-85.03169	571.68707	657.11707	
6134	61.330	-253.49425	5.37850	-201.56148	173.36406	7.97689	-129.72510	-360.22360	53.22822	418.21725	67.17454	53.17460	428.32336	-92.66355	751.73065	-747.34283	-86.66646	546.86700	-239.71242	66.35615	554.79858	-215.81348	-233.07693	570.22559	631.59882	-86.38079	572.95264	656.72375	
6135	61.340	-253.21478	5.26052	-201.67331	173.79425	8.00688	-129.53400	-360.03998	53.72708	417.61084	67.68081	53.84779	428.35565	-90.81448	750.91602	-748.13409	-86.98917	546.06317	-239.90292	65.88544	553.88263	-216.01540	-234.57497	571.41046	630.98120	-87.78571	574.23328	656.37933	
6136	61.350	-252.89258	5.02598	-201.89084	174.23434	8.09556	-129.43748	-359.91150	53.82621	417.52307	67.43295	54.47498	427.99310	-89.52447	750.42090	-748.90735	-86.81021	544.75378	-240.24086	66.13695	552.48767	-215.83810	-236.18417	573.06995	630.33875	-89.38542	575.42615	655.88806	
6137	61.360	-252.52077	4.76058	-202.35242	174.77882	7.99584	-129.27832	-359.85468	54.17076	417.16812	67.46073	55.23961	427.93329	-88.15707	749.44574	-749.45691	-87.26651	544.07269	-240.91206	66.05408	551.43683	-216.01843	-237.87608	574.29779	629.58868	-90.79236	576.70020	655.77917	
6138	61.370	-252.27032	4.68044	-202.57599	174.84134	7.20765	-129.75876	-359.80682	54.27879	416.88474	67.72873	55.84626	427.61600	-87.57130	748.91412	-749.87439	-87.31029	543.37915	-241.25957	66.14038	550.22150	-216.06705	-239.53020	575.50488	628.83331	-92.76872	578.12585	655.01959	
6139	61.380	-251.62444	4.45176	-202.86899	175.16719	6.98904	-129.80560	-359.56500	54.33541	416.62134	67.92442	56.44212	427.65067	-86.78161	747.92987	-749.77789	-87.09285	542.08289	-241.58434	66.24169	549.17535	-216.25653	-241.19414	576.92926	627.94830	-94.32217	579.33722	654.64557	
6140	61.390	-250.94217	4.06859	-202.99113	175.71835	6.88186	-129.90840	-359.16736	54.37997	416.36310	68.12037	56.96355	427.37543	-86.84776	747.27106	-749.74121	-86.74346	541.44299	-241.98228	66.45598	548.07373	-216.37718	-242.67160	578.28363	627.22345	-96.26051	580.38458	653.88892	
6141	61.400	-250.58319	3.94034	-203.07129	176.44696	6.80132	-130.01616	-358.66641	54.57635	416.09537	68.75535	57.55586	427.20352	-87.56741	747.09827	-749.95618	-86.56512	540.63495	-242.36923	66.47827	547.08472	-216.59209	-244.27762	579.56537	626.48834	-97.89777	581.36938	653.43536	
6142	61.410	-250.03568	3.71154	-203.17522	177.03539	6.68237	-129.95888	-358.32391	54.95292	415.62552	69.32607	58.04174	427.05276	-88.27634	746.79608	-749.91840	-86.21387	539.53760	-242.63885	66.67105	546.29431	-216.64738	-245.29099	580.73102	625.71619	-99.14602	582.43799	652.79639	
6143	61.420	-249.61499	3.59205	-203.35902	177.49396	6.60097	-129.98764	-358.10635	55.23266	415.49811	69.51199	58.40190	426.85873	-89.19951	746.34662	-749.78271	-86.05440	539.18365	-243.13153	66.88844	545.41748	-216.74182	-246.56685	581.75757	625.05646	-100.13405	583.53003	652.59131	
6144	61.430	-249.22345	3.50822	-203.59259	177.80608	6.61051	-129.94531	-357.69775	55.47118	415.38855	69.67326	58.76096	426.69260	-90.86205	746.28418	-749.81409	-85.98405	538.84338	-243.44267	66.76631	544.88226	-217.03412	-247.28548	582.93781	624.33923	-100.75665	584.49420	652.15204	
6145	61.440	-248.84888	3.14004	-203.61357	178.04022	6.62428	-129.94116	-357.34460	55.79122	415.18759	70.04982	59.26899	426.49075	-92.95319	746.12244	-750.06720	-86.20129	538.08966	-243.74023	66.63426	544.17010	-217.19122	-247.74452	583.98071	624.04016	-101.44020	585.31677	651.99707	
6146	61.450	-248.77972	3.04287	-203.76094	178.33748	6.93030	-129.94833	-356.78436	56.09404	415.02435	70.30732	59.44855	426.30084	-94.55953	746.08032	-750.22504	-86.60212	537.54309	-244.15251	66.33383	543.62732	-217.56427	-247.96773	584.91748	623.56421	-101.97209	586.39423	651.18201	
